<svg xmlns="http://www.w3.org/2000/svg" version="1.1" xmlns:xlink="http://www.w3.org/1999/xlink" xmlns:svgjs="http://svgjs.dev/svgjs" viewBox="0 0 8.128664648437502 8.536135845065733"><g transform="matrix(0.8571428571428571,0,0,0.8571428571428571,1.1612378069196434,6.432935809815502)"><g clip-path="url(#SvgjsClipPath6594)"><g clip-path="url(#SvgjsClipPath6592d440f54f-7f6a-4056-96df-4eecd25a4a9f)"><path d=" M 2.0041369435262406 -3.0398762530974546 L 2.0041369435262406 -0.6468000520453101 C 2.004117782046643 -0.6225799494174007 2.0137257514676907 -0.5993452802355916 2.0308451823709364 -0.582212305478782 C 2.04796461327419 -0.5650793307219715 2.071191676955629 -0.5554529897181437 2.0954117871632336 -0.5554529972978468 C 2.1196318973708417 -0.5554529897181437 2.1428589610522852 -0.5650793307219715 2.1599783919555344 -0.5822123054787838 C 2.17709782285878 -0.5993452802355943 2.186705792279824 -0.6225799494174025 2.186686630800226 -0.6468000520453101 L 2.186686630800226 -3.0398762530974546 Z" fill="#202020" transform="matrix(1,0,0,1,0,0)" fill-rule="nonzero"></path></g><g clip-path="url(#SvgjsClipPath6592d440f54f-7f6a-4056-96df-4eecd25a4a9f)"><path d=" M 1.487466448096909 -3.0398762530974546 L 1.487466448096909 -0.9774547268979861 C 1.4874664491600547 -0.9270051396940078 1.5283639194903833 -0.8861076710873776 1.578813504769369 -0.8861076721505237 C 1.6292348856255976 -0.8861475309635933 1.6700883622358385 -0.9270333283622936 1.670088346481365 -0.9774547268979861 L 1.670088346481365 -3.0398762530974546 Z" fill="#202020" transform="matrix(1,0,0,1,0,0)" fill-rule="nonzero"></path></g><g clip-path="url(#SvgjsClipPath6592d440f54f-7f6a-4056-96df-4eecd25a4a9f)"><path d=" M 2.520735227845102 -3.0398762530974546 L 2.520735227845102 -0.46843860917871893 C 2.5207352273349692 -0.4442310174621369 2.5303516559761663 -0.4210149036311739 2.547469009234535 -0.4038975496513615 C 2.564586362492908 -0.3867801956715473 2.5878024759185654 -0.37716376605186497 2.612010069558623 -0.37716376554172637 C 2.6624314700177893 -0.3771637497872531 2.7033172674164896 -0.41801722639749794 2.7033571262295575 -0.46843860917871893 L 2.7033571262295575 -3.0398762530974546 Z" fill="#202020" transform="matrix(1,0,0,1,0,0)" fill-rule="nonzero"></path></g><g clip-path="url(#SvgjsClipPath6592d440f54f-7f6a-4056-96df-4eecd25a4a9f)"><path d=" M 0.9708681637780521 -3.0398762530974546 L 0.9708681637780521 -1.4858931557334785 C 0.9708681648411934 -1.4354435685295002 1.011765635171526 -1.3945460999228718 1.0622152204505078 -1.3945461009860152 C 1.0864353287331192 -1.3945460934063147 1.1096623924145625 -1.4041724344101407 1.1267818233178122 -1.4213054091669521 C 1.1439012542210576 -1.4384383839237627 1.1535092236421054 -1.4616730531055708 1.1534900621625077 -1.4858931557334785 L 1.1534900621625077 -3.0398762530974546 Z" fill="#202020" transform="matrix(1,0,0,1,0,0)" fill-rule="nonzero"></path></g><g clip-path="url(#SvgjsClipPath6592d440f54f-7f6a-4056-96df-4eecd25a4a9f)"><path d=" M 0.4748500459437938 -3.0398762530974546 L 0.4748500459437938 -2.273499737654894 C 0.474850045433657 -2.249292145938312 0.4844664740748583 -2.226076032107349 0.501583827333227 -2.2089586781275368 C 0.5187011805915999 -2.1918413241477226 0.5419172940172572 -2.1822248945280402 0.566124887657315 -2.182224894017901 C 0.5903449922086877 -2.182205732538308 0.6135796613905024 -2.1918137019593495 0.6307126361473145 -2.208933132862599 C 0.6478456109041226 -2.2260525637658466 0.6574719519079524 -2.24927962744729 0.6574719443282496 -2.273499737654894 L 0.6574719443282496 -3.0398762530974546 Z" fill="#202020" transform="matrix(1,0,0,1,0,0)" fill-rule="nonzero"></path></g><g clip-path="url(#SvgjsClipPath6592d440f54f-7f6a-4056-96df-4eecd25a4a9f)"><path d=" M 3.037333512163967 -3.0398762530974546 L 3.037333512163967 -0.3415636880788808 C 3.0373143506843694 -0.3173435854509714 3.046922320105413 -0.29410891626916325 3.064041751008663 -0.2769759415123527 C 3.0811611819119125 -0.2598429667555431 3.104388245593356 -0.2502166257517171 3.12860835580096 -0.2502166333314175 C 3.1790579410799418 -0.2502166333314175 3.219955410548423 -0.2911141027998996 3.219955410548423 -0.3415636880788808 L 3.219955410548423 -3.0398762530974546 Z" fill="#202020" transform="matrix(1,0,0,1,0,0)" fill-rule="nonzero"></path></g><g clip-path="url(#SvgjsClipPath6592d440f54f-7f6a-4056-96df-4eecd25a4a9f)"><path d=" M 5.620397144868743 -3.0398762530974546 L 5.620397144868743 -1.4858931557334785 C 5.620377983389142 -1.461673053105569 5.629985952810189 -1.4384383839237609 5.647105383713435 -1.4213054091669504 C 5.664224814616689 -1.4041724344101407 5.687451878298128 -1.3945460934063147 5.711671988505737 -1.3945461009860152 C 5.762121573784718 -1.3945461009860152 5.803019043253197 -1.4354435704544972 5.803019043253197 -1.4858931557334785 L 5.803019043253197 -3.0398762530974546 Z" fill="#202020" transform="matrix(1,0,0,1,0,0)" fill-rule="nonzero"></path></g><g clip-path="url(#SvgjsClipPath6592d440f54f-7f6a-4056-96df-4eecd25a4a9f)"><path d=" M 6.116415262702995 -3.0398762530974546 L 6.116415262702995 -2.273499737654894 C 6.116415255123933 -2.249279627444887 6.1260415961283705 -2.226052563763698 6.143174570885633 -2.2089331328608988 C 6.160307545642893 -2.1918137019581034 6.183542214824956 -2.1822057325376725 6.207762317452861 -2.1822248940179034 C 6.2319699110905145 -2.182224894017901 6.2551860247188245 -2.1918413231483433 6.272303378337918 -2.2089586767674367 C 6.289420731957011 -2.2260760303865283 6.299037161087451 -2.2492921440148383 6.299037161087451 -2.273499737654894 L 6.299037161087451 -3.0398762530974546 Z" fill="#202020" transform="matrix(1,0,0,1,0,0)" fill-rule="nonzero"></path></g><g clip-path="url(#SvgjsClipPath6592d440f54f-7f6a-4056-96df-4eecd25a4a9f)"><path d=" M 5.103798860549882 -3.0398762530974546 L 5.103798860549882 -0.9774547268979861 C 5.103798844789695 -0.9270333283726444 5.144652321395306 -0.8861475309693132 5.195073704176527 -0.8861076721505317 C 5.245523289465857 -0.8861076721505237 5.286420758934338 -0.9270051416190048 5.286420758934338 -0.9774547268979861 L 5.286420758934338 -3.0398762530974546 Z" fill="#202020" transform="matrix(1,0,0,1,0,0)" fill-rule="nonzero"></path></g><g clip-path="url(#SvgjsClipPath6592d440f54f-7f6a-4056-96df-4eecd25a4a9f)"><path d=" M 4.587200576231021 -3.0398762530974546 L 4.587200576231021 -0.6468000520453101 C 4.587181414751424 -0.6225799494174007 4.596789384172467 -0.5993452802355916 4.613908815075717 -0.582212305478782 C 4.631028245978967 -0.5650793307219715 4.65425530966041 -0.5554529897181437 4.678475419868014 -0.5554529972978468 C 4.702695530075618 -0.5554529897181437 4.725922593757061 -0.5650793307219715 4.743042024660311 -0.5822123054787838 C 4.76016145556356 -0.5993452802355943 4.769769424984604 -0.6225799494174025 4.769750263505006 -0.6468000520453101 L 4.769750263505006 -3.0398762530974546 Z" fill="#202020" transform="matrix(1,0,0,1,0,0)" fill-rule="nonzero"></path></g><g clip-path="url(#SvgjsClipPath6592d440f54f-7f6a-4056-96df-4eecd25a4a9f)"><path d=" M 3.5539317964828285 -3.0398762530974546 L 3.5539317964828285 -0.3415636880788808 C 3.553931797545974 -0.2911141008749025 3.5948292678763027 -0.2502166322682742 3.6452788531552844 -0.2502166333314175 C 3.6694989614378954 -0.2502166257517171 3.692726025119343 -0.2598429667555431 3.7098454560225886 -0.2769759415123545 C 3.7269648869258383 -0.294108916269165 3.736572856346882 -0.3173435854509732 3.7365536948672844 -0.3415636880788808 L 3.7365536948672844 -3.0398762530974546 Z" fill="#202020" transform="matrix(1,0,0,1,0,0)" fill-rule="nonzero"></path></g><g clip-path="url(#SvgjsClipPath6592d440f54f-7f6a-4056-96df-4eecd25a4a9f)"><path d=" M 4.0703856585807445 -3.0398762530974546 L 4.0703856585807445 -0.46843860917871893 C 4.0704255173938 -0.41801722639752104 4.111311314792492 -0.3771637497872655 4.161732713328183 -0.37716376554172637 C 4.185940306968261 -0.37716376554172637 4.209156420596571 -0.38678019467216807 4.226273774215665 -0.40389754829125923 C 4.243391127834759 -0.42101490191035307 4.2530075569652 -0.44423101553866307 4.2530075569652 -0.46843860917871893 L 4.2530075569652 -3.0398762530974546 Z" fill="#202020" transform="matrix(1,0,0,1,0,0)" fill-rule="nonzero"></path></g><g clip-path="url(#SvgjsClipPath6592d440f54f-7f6a-4056-96df-4eecd25a4a9f)"><path d=" M 3.386979709070861 -6.1160695592175935 C 1.7672887944974698 -6.116069559217594 0.4542698794591867 -4.803050644179313 0.4542698794591867 -3.1833597296059226 L 6.31961732757206 -3.1833597296059226 C 6.319617327572058 -4.803022445294633 5.0066424224905735 -6.116029679307867 3.386979708181841 -6.116069559217616 Z" fill="#006fbf" transform="matrix(1,0,0,1,0,0)" fill-rule="nonzero"></path></g></g><g><path d=" M 0.0915 1.0649999999999997 L 0.0915 -2.220446049250313e-16 L 0.5505 -2.220446049250313e-16 Q 0.6285000000000001 -2.220446049250313e-16 0.6945 0.03149999999999964 Q 0.7605000000000001 0.06299999999999972 0.8085 0.11624999999999974 Q 0.8565 0.16949999999999965 0.88275 0.2354999999999997 Q 0.909 0.30149999999999966 0.909 0.36899999999999966 Q 0.909 0.4634999999999997 0.86475 0.5474999999999998 Q 0.8205 0.6314999999999997 0.74175 0.6847499999999997 Q 0.663 0.7379999999999998 0.558 0.7379999999999998 L 0.384 0.7379999999999998 L 0.384 1.0649999999999997 L 0.0915 1.0649999999999997 M 0.384 0.48299999999999976 L 0.5385 0.48299999999999976 Q 0.5565 0.48299999999999976 0.5730000000000001 0.4724999999999997 Q 0.5895 0.46199999999999974 0.60075 0.43649999999999967 Q 0.612 0.4109999999999997 0.612 0.36899999999999966 Q 0.612 0.32399999999999973 0.5992500000000001 0.2992499999999997 Q 0.5865 0.27449999999999974 0.56775 0.2647499999999997 Q 0.549 0.25499999999999967 0.531 0.25499999999999967 L 0.384 0.25499999999999967 L 0.384 0.48299999999999976 M 1.0304787597656249 1.0649999999999997 L 1.0304787597656249 -2.220446049250313e-16 L 1.519478759765625 -2.220446049250313e-16 Q 1.5974787597656248 -2.220446049250313e-16 1.663478759765625 0.03149999999999964 Q 1.729478759765625 0.06299999999999972 1.777478759765625 0.11624999999999974 Q 1.825478759765625 0.16949999999999965 1.8517287597656251 0.2354999999999997 Q 1.877978759765625 0.30149999999999966 1.877978759765625 0.36899999999999966 Q 1.877978759765625 0.43049999999999966 1.859978759765625 0.4874999999999997 Q 1.841978759765625 0.5444999999999998 1.807478759765625 0.5917499999999998 Q 1.7729787597656248 0.6389999999999998 1.724978759765625 0.6734999999999998 L 1.949978759765625 1.0649999999999997 L 1.6289787597656251 1.0649999999999997 L 1.4414787597656251 0.7379999999999998 L 1.322978759765625 0.7379999999999998 L 1.322978759765625 1.0649999999999997 L 1.0304787597656249 1.0649999999999997 M 1.322978759765625 0.48299999999999976 L 1.507478759765625 0.48299999999999976 Q 1.525478759765625 0.48299999999999976 1.541978759765625 0.4694999999999997 Q 1.558478759765625 0.45599999999999974 1.569728759765625 0.43049999999999966 Q 1.580978759765625 0.4049999999999997 1.580978759765625 0.36899999999999966 Q 1.580978759765625 0.3314999999999997 1.568228759765625 0.30674999999999975 Q 1.555478759765625 0.2819999999999997 1.536728759765625 0.26849999999999974 Q 1.517978759765625 0.25499999999999967 1.4999787597656251 0.25499999999999967 L 1.322978759765625 0.25499999999999967 L 1.322978759765625 0.48299999999999976 M 2.29346044921875 -2.220446049250313e-16 L 2.6204604492187498 -2.220446049250313e-16 L 2.95946044921875 1.0649999999999997 L 2.66246044921875 1.0649999999999997 L 2.59796044921875 0.8564999999999997 L 2.3144604492187497 0.8564999999999997 L 2.25146044921875 1.0649999999999997 L 1.95296044921875 1.0649999999999997 L 2.29346044921875 -2.220446049250313e-16 M 2.55146044921875 0.6614999999999998 L 2.45696044921875 0.28649999999999975 L 2.35796044921875 0.6614999999999998 L 2.55146044921875 0.6614999999999998 M 3.0524487304687495 1.0649999999999997 L 3.0524487304687495 -2.220446049250313e-16 L 3.4619487304687495 -2.220446049250313e-16 Q 3.6389487304687496 -2.220446049250313e-16 3.7581987304687496 0.0712499999999997 Q 3.8774487304687497 0.14249999999999974 3.93819873046875 0.26324999999999976 Q 3.99894873046875 0.3839999999999997 3.99894873046875 0.5309999999999997 Q 3.99894873046875 0.6929999999999997 3.9321987304687496 0.8129999999999997 Q 3.8654487304687497 0.9329999999999997 3.7446987304687496 0.9989999999999997 Q 3.62394873046875 1.0649999999999997 3.4619487304687495 1.0649999999999997 L 3.0524487304687495 1.0649999999999997 M 3.7019487304687497 0.5309999999999997 Q 3.7019487304687497 0.4484999999999997 3.6734487304687495 0.38624999999999976 Q 3.64494873046875 0.32399999999999973 3.5909487304687495 0.28949999999999976 Q 3.5369487304687497 0.25499999999999967 3.4619487304687495 0.25499999999999967 L 3.3449487304687495 0.25499999999999967 L 3.3449487304687495 0.8099999999999997 L 3.4619487304687495 0.8099999999999997 Q 3.5384487304687497 0.8099999999999997 3.5916987304687495 0.7739999999999998 Q 3.64494873046875 0.7379999999999998 3.6734487304687495 0.6742499999999998 Q 3.7019487304687497 0.6104999999999997 3.7019487304687497 0.5309999999999997 M 4.889953857421875 0.8099999999999997 L 4.889953857421875 1.0649999999999997 L 4.130953857421875 1.0649999999999997 L 4.130953857421875 -2.220446049250313e-16 L 4.8764538574218745 -2.220446049250313e-16 L 4.8764538574218745 0.25499999999999967 L 4.423453857421875 0.25499999999999967 L 4.423453857421875 0.4049999999999997 L 4.810453857421875 0.4049999999999997 L 4.810453857421875 0.6419999999999997 L 4.423453857421875 0.6419999999999997 L 4.423453857421875 0.8099999999999997 L 4.889953857421875 0.8099999999999997 M 5.78993115234375 0.8099999999999997 L 5.78993115234375 1.0649999999999997 L 5.03093115234375 1.0649999999999997 L 5.03093115234375 -2.220446049250313e-16 L 5.77643115234375 -2.220446049250313e-16 L 5.77643115234375 0.25499999999999967 L 5.32343115234375 0.25499999999999967 L 5.32343115234375 0.4049999999999997 L 5.71043115234375 0.4049999999999997 L 5.71043115234375 0.6419999999999997 L 5.32343115234375 0.6419999999999997 L 5.32343115234375 0.8099999999999997 L 5.78993115234375 0.8099999999999997 M 5.930908447265625 1.0649999999999997 L 5.930908447265625 -2.220446049250313e-16 L 6.389908447265626 -2.220446049250313e-16 Q 6.467908447265625 -2.220446049250313e-16 6.533908447265625 0.03149999999999964 Q 6.5999084472656255 0.06299999999999972 6.647908447265625 0.11624999999999974 Q 6.695908447265625 0.16949999999999965 6.722158447265625 0.2354999999999997 Q 6.748408447265625 0.30149999999999966 6.748408447265625 0.36899999999999966 Q 6.748408447265625 0.4634999999999997 6.704158447265625 0.5474999999999998 Q 6.659908447265625 0.6314999999999997 6.581158447265625 0.6847499999999997 Q 6.502408447265625 0.7379999999999998 6.397408447265625 0.7379999999999998 L 6.2234084472656255 0.7379999999999998 L 6.2234084472656255 1.0649999999999997 L 5.930908447265625 1.0649999999999997 M 6.2234084472656255 0.48299999999999976 L 6.377908447265625 0.48299999999999976 Q 6.395908447265625 0.48299999999999976 6.4124084472656255 0.4724999999999997 Q 6.428908447265625 0.46199999999999974 6.440158447265625 0.43649999999999967 Q 6.451408447265625 0.4109999999999997 6.451408447265625 0.36899999999999966 Q 6.451408447265625 0.32399999999999973 6.438658447265626 0.2992499999999997 Q 6.425908447265625 0.27449999999999974 6.407158447265625 0.2647499999999997 Q 6.3884084472656255 0.25499999999999967 6.370408447265625 0.25499999999999967 L 6.2234084472656255 0.25499999999999967 L 6.2234084472656255 0.48299999999999976" fill="#202020" fill-rule="nonzero"></path></g><g></g></g><defs><clipPath id="SvgjsClipPath6594"><path d=" M 0.45426987945919084 -6.116358403659484 h 5.865347448112869 v 5.866358403659484 h -5.865347448112869 Z"></path></clipPath><clipPath id="SvgjsClipPath6592d440f54f-7f6a-4056-96df-4eecd25a4a9f"><path d=" M 0.45426987945919034 -6.116358403659484 L 6.31961732757206 -6.116358403659484 L 6.31961732757206 -0.25 L 0.4542698794591898 -0.25 Z"></path></clipPath></defs></svg>